inDegrees=yes
name=ik_Xsens_quaternion
DataType=double
version=3
OpenSimVersion=4.4-2022-07-23-0e9fedc
endheader
time	pelvis_tilt	pelvis_list	pelvis_rotation	pelvis_tx	pelvis_ty	pelvis_tz	hip_flexion_r	hip_adduction_r	hip_rotation_r	knee_angle_r	knee_angle_r_beta	ankle_angle_r	subtalar_angle_r	mtp_angle_r	hip_flexion_l	hip_adduction_l	hip_rotation_l	knee_angle_l	knee_angle_l_beta	ankle_angle_l	subtalar_angle_l	mtp_angle_l	lumbar_extension	lumbar_bending	lumbar_rotation	arm_flex_r	arm_add_r	arm_rot_r	elbow_flex_r	pro_sup_r	wrist_flex_r	wrist_dev_r	arm_flex_l	arm_add_l	arm_rot_l	elbow_flex_l	pro_sup_l	wrist_flex_l	wrist_dev_l
17.38333333333333	0	0	0	0	0.93	0	0	0	0	3.658853563244129e-41	0	0	0	0	0	0	0	3.658853563244129e-41	0	0	0	0	0	0	0	0	0	0	0	0	0	0	3204299.204004769	6326221.071831864	3579012.021068463	178593.5932403169	150060.9050058456	0	0
17.4	0	0	0	0	0.93	0	0	0	0	1.299338470761735e-38	0	0	0	0	0	0	0	1.299338470761735e-38	0	0	0	0	0	0	0	0	0	0	3.90820048899263e-39	0	0	0	3204298.639424223	6326221.566583432	3579011.403992397	178593.4814936147	150060.9485282003	0	0
17.41666666666667	0	0	0	0	0.93	0	0	0	0	0	0	0	0	0	0	0	0	0	0	0	0	0	0	0	0	0	0	0	0	0	0	0	3204298.158194533	6326222.0182903	3579010.823308583	178593.3674818795	150060.9718973557	0	0
17.43333333333333	0	0	0	0	0.93	0	0	0	0	0	0	0	0	0	0	0	0	0	0	0	0	0	0	0	0	0	0	0	3.156742081759266e-39	5.88087889738064e-40	0	0	3204297.764436066	6326222.427912999	3579010.270172216	178593.2457206519	150060.9905045402	0	0
17.45	2.335540041786127e-27	-6.60801454414422e-24	-3.150078929531843e-27	1.696933670411778e-26	0.93	-1.498300993812606e-25	0	2.912673316180265e-26	0	2.209993134738704e-16	3.857165664611263e-18	8.240997035234136e-18	3.23163196207982e-24	2.825922916623033e-21	5.023731592188769e-27	0	3.419541487225419e-27	0	-1.344831542206605e-16	-3.71391780914006e-18	2.231637125493791e-24	4.486909841144406e-24	2.319242925247475e-27	-6.741447367137968e-27	1.707652068589646e-27	-2.726452264680391e-26	1.156668643905928e-17	-1.5425532994929e-17	0	0	-3.352934026260795e-24	1.274633480620562e-25	3204297.419403684	6326222.800084236	3579009.789366691	178593.1290635313	150061.0032466363	4.899650506573495e-24	2.289301560051945e-25
17.46666666666667	-8.168469570624522e-28	1.928528260186412e-23	1.781928672846164e-27	-6.749344210764193e-24	0.93	-1.404004965147409e-24	0	-2.08305054423314e-23	0	0	-1.12597725744245e-14	1.179924783138966e-20	-8.547030006742757e-23	-9.581039305208501e-20	-3.170770984583157e-22	0	-4.738890654341091e-24	0	-1.075720764507603e-16	1.03446467326438e-20	8.263669548241273e-23	1.049013549089252e-21	-1.142265983059804e-26	4.643847510753318e-24	-8.215162401930955e-28	-3.730909030864992e-24	1.458696496381811e-18	-4.914293908371824e-18	0	0	2.454932086046956e-23	-1.888108559956761e-23	3204297.073296625	6326223.16256245	3579009.394403749	178593.057197939	150060.9769905307	-3.15108811957223e-24	-2.584247816218809e-23
17.48333333333333	8.855396255237557e-13	1.78075385556084e-12	-2.264968510644626e-12	6.387028467129913e-37	0.93	1.328635701537718e-37	0	1.971229012630372e-36	0	0	-1.858504332465172e-17	-1.116584507124425e-33	8.088211574009207e-36	9.066713576329287e-33	3.000558855541308e-35	0	4.484499318262615e-37	0	-1.858504332572333e-17	-9.789329318688467e-34	-7.820062364487281e-36	-9.927008004351259e-35	8.855396255237557e-13	1.78075385556084e-12	-2.264968510644626e-12	3.530627783126291e-37	-1.38039130267418e-31	4.650486641139899e-31	0	0	-2.323147350144866e-36	1.786751829911016e-36	3204296.775445334	6326223.503903465	3579009.058145863	178592.99111218	150060.9117182358	2.981932598732259e-37	2.445521202630932e-36
17.5	0	0	0	0	0.93	0	0	0	0	5.769047751033398e-40	1.223920082282981e-40	0	0	0	0	0	0	5.769047751033398e-40	1.223920082282981e-40	0	0	0	0	0	0	0	0	0	0	0	0	0	3204296.543915761	6326223.795072042	3579008.740209444	178592.9181937299	150060.8285208869	0	0
17.51666666666667	0	0	0	0	0.93	0	0	0	0	0	0	0	0	0	0	0	0	0	0	0	0	0	0	0	0	0	0	0	0	0	0	0	3204296.355575968	6326224.065876059	3579008.447994607	178592.851176668	150060.7458393582	0	0
17.53333333333333	4.609629472192359e-26	-1.31438311508996e-24	-7.036629460096051e-26	-8.78976016595045e-26	0.93	-1.539668980187247e-24	8.318313179510821e-37	3.104369130807564e-22	0	0	-9.507739130496508e-17	1.997569775144462e-18	-2.848041846960915e-25	7.226713002690609e-19	-1.371371709288479e-16	-7.595228321811426e-39	-7.380735253899403e-16	0	-9.507739125053121e-17	-5.092256195983498e-19	6.047888682432897e-23	-1.956452004620864e-21	1.111019312711227e-26	3.054163540097983e-16	-7.036330590362573e-26	9.366602318532095e-26	-2.279842880807788e-17	-3.116984289373072e-19	0	0	2.738598276977822e-16	2.269868059576223e-21	3204296.197003033	6326224.324093261	3579008.201777785	178592.7799708278	150060.6954523954	-1.28713253473696e-18	2.105234241065407e-17
17.55	9.280426449286229e-25	3.775681337507438e-23	-4.6451941705695e-25	-2.565061754129616e-26	0.93	1.413808072323294e-26	2.347902722728938e-33	-2.956000839214203e-24	-3.481157776935028e-24	0	3.296110316924278e-16	-1.122905193351597e-12	3.497547743811008e-13	1.963864873109062e-19	-6.202736768719551e-15	-9.681579036998701e-15	1.703979549551947e-14	1.872830307074222e-14	-1.288225847686854e-16	-7.028412956743781e-13	4.835440607554093e-14	-8.227224752856083e-23	1.139245387114599e-13	-2.531200532491077e-15	1.508852428474668e-13	-2.936324520872842e-13	-4.215189697671574e-14	-3.561433523569851e-13	0	0	-1.680927872910919e-23	1.892656371018775e-23	3204296.071289604	6326224.552282671	3579007.979590676	178592.6805629067	150060.663751065	1.394296200079087e-24	-6.540289762157783e-23
17.56666666666667	-4.291328473363259e-25	-1.059626416061683e-23	-4.596458409427791e-25	6.075786676586627e-26	0.93	6.178531557964872e-28	-1.075577093930291e-33	-6.872816795264004e-25	-3.48722771685591e-24	0	-1.372659924197787e-16	3.144198733640468e-15	-6.047493367536903e-15	-1.556282840605276e-21	5.639788587361446e-15	9.706026640584874e-15	-2.504146420405862e-14	0	-2.725975423547602e-16	1.025186945842247e-14	6.715073774658627e-15	-1.930717593832046e-21	-1.550574641296347e-14	2.463307766573582e-15	-4.718754679514827e-15	5.764511352562379e-16	-5.482819748664725e-15	-1.178376986320003e-15	0	0	-1.317848260356608e-23	-5.9020407227253e-24	3204295.974632093	6326224.761523754	3579007.774855562	178592.5840684343	150060.5964562926	-8.114093873314405e-24	9.310788868045075e-24
17.58333333333333	0	0	0	0	0.93	0	0	0	0	1.407417180952405e-38	3.057565996409652e-40	0	0	0	0	0	0	0	-1.194371256444771e-40	0	0	0	0	0	0	0	0	0	2.556037253580615e-39	1.976112594405385e-39	0	0	3204295.924356461	6326224.926898353	3579007.556417227	178592.4432271567	150060.5404826362	0	0
17.6	6.263742654914356e-27	3.670951010353512e-19	-5.187509253035273e-27	-1.390205115871609e-20	0.93	-9.064188762220463e-21	7.088217399741306e-36	9.622208525543564e-27	-2.328425121003291e-36	0	-1.7979824590318e-17	1.738682247077602e-18	1.50885037133012e-26	-7.596751595882027e-23	7.558560648027953e-26	-4.738581748211102e-38	6.41960869002588e-27	0	-1.791282078733012e-17	4.894819039655838e-19	4.474959291230556e-27	-3.070344064856924e-22	1.934953230871734e-27	-2.154337804691472e-26	-1.005101336020474e-27	8.265973068220135e-24	2.949054043059929e-17	-2.093938200864566e-18	0	0	-3.184919983808084e-22	-8.289638324506083e-22	3204295.946016271	6326225.036442919	3579007.305867585	178592.2580768942	150060.4338230373	-5.32198324423948e-22	-6.483797368422217e-24
17.61666666666667	0	0	0	0	0.93	0	0	0	0	0	0	0	0	0	0	0	0	0	0	0	0	0	0	0	0	0	0	0	0	0	0	0	3204296.002972218	6326225.109618972	3579007.051381622	178592.0537746303	150060.2812297938	0	0
17.63333333333333	5.622041123689827e-25	-2.246556896429301e-20	5.381846019702088e-25	1.140732990464045e-21	0.93	4.247571743654007e-21	-1.526285408421598e-39	1.292410050811412e-24	0	0	-2.109254004987915e-17	2.474659844946904e-16	-4.102884770603673e-23	2.402806574437046e-22	-2.104301152274232e-25	-2.854057577693002e-38	-1.035973064846895e-24	0	-2.109254003066982e-17	3.717436144220444e-18	-5.491564451966825e-24	-5.49274162556145e-24	4.420336561432135e-25	-1.252336997262516e-24	3.982401956936894e-25	-1.170770028687426e-24	-1.318695339448957e-15	4.089078339074127e-16	0	0	-1.236853804366853e-22	-1.948930629716627e-21	3204296.077852	6326225.166577808	3579006.840834772	178591.8074192689	150060.2529185858	1.204701629623846e-21	-1.440486466102782e-22
17.65	1.487745410971954e-26	-4.512612781376253e-16	9.127925870645372e-26	-7.856940533128719e-20	0.93	1.647993221962497e-19	6.359508421879238e-40	2.124860631291553e-25	-1.804644343500703e-40	0	-1.581730604594412e-17	-2.591183131459892e-18	-1.144104420627215e-21	3.62454933088274e-17	7.127636311646968e-27	-5.589222864892477e-39	1.70208288676465e-25	0	-1.581732512151799e-17	-1.934727549971977e-18	3.517776236575696e-22	-2.898242248306878e-18	2.220029399004613e-26	2.535458360916456e-25	1.894223228736359e-25	-6.61626213741953e-25	3.810236610095876e-16	-7.148698967541791e-16	0	0	-1.842164752119487e-16	1.056448287741981e-17	3204296.182554561	6326225.207398206	3579006.675326908	178591.5155665317	150060.3434280885	-2.604959258923241e-16	2.88252417613832e-19
17.66666666666667	-2.145875420480182e-23	-5.799403994979337e-18	-4.214561012600069e-23	7.507826725611533e-23	0.93	1.588861827358816e-22	-5.72416581391253e-36	2.561566639947967e-21	-1.174009768034162e-34	6.606718549996111e-07	1.153103253100237e-08	-4.489894979562311e-09	-3.398843919717022e-07	-1.611243424812758e-11	-3.396767679869712e-23	6.221641304871556e-21	1.26343879874659e-15	6.608842017557489e-07	1.153952324075244e-08	6.059048931483788e-10	1.250298982108537e-07	-3.356036703573028e-18	-9.294152542265298e-12	2.204065828371512e-12	-3.181223412364719e-11	-3.196339109433013e-08	2.88252684853956e-08	-1.48070663598717e-08	6.609891893680541e-07	6.609891507317337e-07	6.958234207655518e-18	-1.556530916591038e-16	3204296.272833364	6326225.255033937	3579006.571851522	178591.2864400334	150060.3017334847	1.061435420648391e-17	-1.466793588914743e-18
17.68333333333333	0	0	0	0	0.93	0	1.556896307693663e-36	1.412305009797305e-35	0	0	0	2.694034605743505e-36	0	0	5.478689302235236e-36	-4.301028701846271e-36	0	0	0	6.735086514358763e-36	0	0	0	0	0	0	0	0	0	0	0	-5.895389043088593e-36	3204296.354429256	6326225.320880881	3579006.534286126	178591.1284278301	150060.1084225131	0	-2.004363801416149e-36
17.7	0	0	0	0	0.93	0	1.541328885945627e-40	0	0	3.905167249213971e-40	3.330856343678396e-41	3.651097715372797e-56	0	0	5.423907833120827e-40	0	0	3.905167249213971e-40	3.330856343678396e-41	5.883782494894668e-55	0	0	0	0	0	0	4.92983706993608e-38	0	0	0	0	-3.878155309955269e-54	3204296.40595506	6326225.38919342	3579006.507686508	178590.9823252327	150059.9258652214	0	0
